<svg xmlns="http://www.w3.org/2000/svg" version="1.1" xlink="http://www.w3.org/1999/xlink" xmlns:svgjs="http://svgjs.com/svgjs" width="100%" height="100%" preserveAspectRatio="xMidYMid meet" viewBox="1.0419067564271245e-7 7.342612775573798e-7 300.0030822753906 40.48467254638672" overflow="visible" style="
    height: fit-content;
    width: fit-content;
    background: transparent;
"><defs id="SvgjsDefs158346"></defs><g id="SvgjsG158347" transform="scale(0.6493506493506493)" opacity="1"><g id="SvgjsG158348" class="VCFueQ6ZW" transform="translate(-3.5325829119752106, -3.46676485224316) scale(0.6927991590459321)" light-content="false" non-strokable="false" fill="gold"><path fill="black" d="M76.254 80.263a3.976 3.976 0 0 0-1.175-.799 3.597 3.597 0 0 0-1.414-.28c-.499 0-.978.096-1.435.28a3.883 3.883 0 0 0-1.195.799 4.327 4.327 0 0 0-.82 1.175 3.405 3.405 0 0 0-.307 1.455c0 .472.103.936.307 1.394.212.458.485.854.82 1.195a3.92 3.92 0 0 0 1.195.819c.457.205.949.308 1.482.308.498 0 .97-.109 1.413-.335a3.774 3.774 0 0 0 1.148-.86c.32-.354.587-.751.799-1.195.205-.437.308-.881.308-1.325 0-.532-.103-1.018-.308-1.455a4.295 4.295 0 0 0-.818-1.176zm-10.643-56.94H81.69v5.963H65.611zM19.84 84.84l7.596-7.603 7.554 7.603 3.586-3.586-7.596-7.555 7.596-7.554-3.586-3.586-7.554 7.546-7.5-7.546-3.593 3.586 7.506 7.554-7.602 7.555zm4.145-47.371h4.735v-8.797h8.798v-4.734H28.72V15.14h-4.735v8.798h-8.797v4.734h8.797zm38.498 33.886h22.329v4.728H62.483zm8.552-4.179c.341.342.737.601 1.195.799a3.91 3.91 0 0 0 1.482.287c.498 0 .97-.109 1.413-.314a3.504 3.504 0 0 0 1.148-.84c.32-.355.587-.752.799-1.195.205-.438.308-.895.308-1.366 0-.533-.103-1.024-.308-1.482a4.225 4.225 0 0 0-.819-1.195 3.707 3.707 0 0 0-1.175-.792 3.502 3.502 0 0 0-1.414-.294c-1.004 0-1.879.362-2.63 1.086-.752.724-1.127 1.612-1.127 2.678 0 .499.103.977.307 1.435.213.455.486.851.821 1.193z"></path><path d="M86.95 5.004H52.395v42.602h42.507V12.947a7.945 7.945 0 0 0-7.952-7.943zm-5.26 24.282H65.611v-5.963H81.69v5.963zM5.099 13.009v34.597h42.508V5.004H13.043c-4.385 0-7.944 3.613-7.944 8.005zm10.089 10.929h8.798V15.14h4.734v8.798h8.798v4.734H28.72v8.797h-4.734v-8.797h-8.798v-4.734zM5.099 87.053c0 4.392 3.56 7.943 7.951 7.943h34.557V52.395H5.099v34.658zm11.244-20.908l3.593-3.586 7.5 7.547 7.555-7.547 3.586 3.586-7.596 7.555 7.596 7.555-3.587 3.585-7.555-7.603-7.595 7.603-3.593-3.586 7.602-7.555-7.506-7.554zm36.052 28.851h34.562a7.942 7.942 0 0 0 7.944-7.943V52.395H52.395v42.601zm24.678-10.778a4.953 4.953 0 0 1-.799 1.195 3.758 3.758 0 0 1-1.148.86 3.066 3.066 0 0 1-1.413.335 3.573 3.573 0 0 1-1.482-.308 3.938 3.938 0 0 1-1.195-.819 4.222 4.222 0 0 1-.82-1.195 3.395 3.395 0 0 1-.307-1.394c0-.532.103-1.018.307-1.455.212-.443.485-.833.82-1.175a3.883 3.883 0 0 1 1.195-.799c.457-.185.936-.28 1.435-.28.505 0 .977.096 1.414.28.443.198.833.464 1.175.799.334.342.607.731.819 1.175.205.438.308.923.308 1.455a3.118 3.118 0 0 1-.309 1.326zm-6.038-22.35c.751-.724 1.626-1.086 2.63-1.086.505 0 .977.103 1.414.294.443.191.833.45 1.175.792.334.342.607.737.819 1.195.205.458.308.949.308 1.482 0 .472-.103.929-.308 1.366-.212.443-.479.84-.799 1.195a3.519 3.519 0 0 1-1.148.84 3.333 3.333 0 0 1-1.413.314 3.928 3.928 0 0 1-1.482-.287 3.763 3.763 0 0 1-1.195-.799 4.236 4.236 0 0 1-.82-1.195 3.489 3.489 0 0 1-.307-1.435c-.001-1.064.374-1.952 1.126-2.676zm-8.552 9.487h22.329v4.728H62.483v-4.728z"></path></g><g id="SvgjsG158349" class="text" transform="translate(270.7747144403578, 35.829152341512774) scale(1)" light-content="false" fill="black"><path d="M-168.89 -0.52L-168.89 -13.96L-179.71 -13.96L-179.71 -9.77L-175.17 -9.77L-175.17 -4.71C-177.38 -4.59 -179.83 -4.54 -182.5 -4.54C-183.04 -4.54 -183.46 -4.69 -183.78 -5.01C-184.09 -5.32 -184.25 -5.75 -184.25 -6.28L-184.25 -17.45C-184.25 -18.84 -183.55 -19.54 -182.15 -19.54L-170.99 -19.54L-170.99 -24.43L-183.55 -24.43C-185.99 -24.43 -187.77 -23.87 -188.87 -22.77C-189.98 -21.66 -190.53 -19.89 -190.53 -17.45L-190.53 -6.28C-190.53 -4 -189.99 -2.33 -188.92 -1.26C-187.85 -0.19 -186.18 0.35 -183.9 0.35C-179.34 0.35 -174.34 0.06 -168.89 -0.52Z M-146.91 -5.23L-146.91 -13.26C-146.91 -15.01 -147.4 -16.37 -148.39 -17.36C-149.38 -18.35 -150.75 -18.84 -152.49 -18.84L-160.52 -18.84C-162.26 -18.84 -163.63 -18.35 -164.62 -17.36C-165.61 -16.37 -166.1 -15.01 -166.1 -13.26L-166.1 -5.23C-166.1 -3.49 -165.61 -2.12 -164.62 -1.13C-163.63 -0.15 -162.26 0.35 -160.52 0.35L-152.49 0.35C-150.75 0.35 -149.38 -0.15 -148.39 -1.13C-147.4 -2.12 -146.91 -3.49 -146.91 -5.23ZM-153.02 -12.74L-153.02 -5.76C-153.02 -4.83 -153.48 -4.36 -154.41 -4.36L-158.6 -4.36C-159.53 -4.36 -160 -4.83 -160 -5.76L-160 -12.74C-160 -13.67 -159.53 -14.13 -158.6 -14.13L-154.41 -14.13C-153.48 -14.13 -153.02 -13.67 -153.02 -12.74Z M-134.35 0L-134.35 -4.54L-136.44 -4.54C-136.79 -4.54 -137.08 -4.65 -137.31 -4.89C-137.55 -5.12 -137.66 -5.41 -137.66 -5.76L-137.66 -24.43L-143.77 -24.43L-143.77 -4.89C-143.77 -3.3 -143.29 -2.04 -142.34 -1.08C-141.38 -0.13 -140.2 0.35 -138.8 0.35C-137.39 0.35 -135.91 0.23 -134.35 0Z M-118.82 0L-113.41 0L-113.41 -24.43L-119.52 -24.43L-119.52 -18.49L-126.67 -18.49C-128.41 -18.49 -129.78 -18 -130.77 -17.01C-131.76 -16.02 -132.25 -14.66 -132.25 -12.91L-132.25 -4.89C-132.25 -3.3 -131.78 -2.04 -130.82 -1.08C-129.87 -0.13 -128.6 0.35 -127.02 0.35L-125.45 0.35C-124.66 0.35 -123.69 0.18 -122.54 -0.16C-121.38 -0.49 -120.26 -1.02 -119.17 -1.74ZM-123.7 -4.71L-124.93 -4.71C-125.27 -4.71 -125.57 -4.83 -125.8 -5.06C-126.03 -5.29 -126.15 -5.58 -126.15 -5.93L-126.15 -12.39C-126.15 -13.32 -125.68 -13.78 -124.75 -13.78L-119.52 -13.78L-119.52 -5.41C-121.08 -4.94 -122.47 -4.71 -123.7 -4.71Z M-94.74 0L-93.17 -4.36L-84.45 -4.36L-82.88 0L-76.07 0L-85.32 -24.43L-92.3 -24.43L-101.55 0ZM-91.6 -8.9L-88.81 -17.1L-86.02 -8.9Z M-75.37 -4.89L-75.37 -0.35C-70.65 0.12 -66.23 0.35 -62.11 0.35C-60.53 0.35 -59.26 -0.13 -58.31 -1.08C-57.36 -2.04 -56.88 -3.3 -56.88 -4.89L-56.88 -6.28C-56.88 -7.86 -57.36 -9.13 -58.31 -10.08C-59.26 -11.04 -60.53 -11.52 -62.11 -11.52L-68.39 -11.52C-68.74 -11.52 -69.03 -11.63 -69.27 -11.86C-69.5 -12.1 -69.62 -12.39 -69.62 -12.74C-69.62 -13.09 -69.5 -13.38 -69.27 -13.61C-69.03 -13.84 -68.74 -13.96 -68.39 -13.96L-58.62 -13.96L-58.62 -18.49L-70.49 -18.49C-72.07 -18.49 -73.34 -18.02 -74.29 -17.06C-75.25 -16.11 -75.72 -14.84 -75.72 -13.26L-75.72 -12.04C-75.72 -10.46 -75.25 -9.19 -74.29 -8.24C-73.34 -7.28 -72.07 -6.8 -70.49 -6.8L-62.99 -6.8L-62.99 -5.58C-62.99 -5.23 -63.1 -4.94 -63.34 -4.71C-63.57 -4.48 -63.86 -4.36 -64.21 -4.36C-66.93 -4.36 -70.65 -4.54 -75.37 -4.89Z M-55.13 -4.89L-55.13 -0.35C-50.41 0.12 -45.99 0.35 -41.87 0.35C-40.29 0.35 -39.02 -0.13 -38.07 -1.08C-37.12 -2.04 -36.64 -3.3 -36.64 -4.89L-36.64 -6.28C-36.64 -7.86 -37.12 -9.13 -38.07 -10.08C-39.02 -11.04 -40.29 -11.52 -41.87 -11.52L-48.16 -11.52C-48.5 -11.52 -48.8 -11.63 -49.03 -11.86C-49.26 -12.1 -49.38 -12.39 -49.38 -12.74C-49.38 -13.09 -49.26 -13.38 -49.03 -13.61C-48.8 -13.84 -48.5 -13.96 -48.16 -13.96L-38.38 -13.96L-38.38 -18.49L-50.25 -18.49C-51.83 -18.49 -53.1 -18.02 -54.05 -17.06C-55.01 -16.11 -55.48 -14.84 -55.48 -13.26L-55.48 -12.04C-55.48 -10.46 -55.01 -9.19 -54.05 -8.24C-53.1 -7.28 -51.83 -6.8 -50.25 -6.8L-42.75 -6.8L-42.75 -5.58C-42.75 -5.23 -42.86 -4.94 -43.1 -4.71C-43.33 -4.48 -43.62 -4.36 -43.97 -4.36C-46.69 -4.36 -50.41 -4.54 -55.13 -4.89Z M-27.04 -14.48L-23.9 -14.48C-22.97 -14.48 -22.51 -14.02 -22.51 -13.09L-22.51 -11.17L-28.44 -11.17L-28.44 -13.09C-28.44 -14.02 -27.97 -14.48 -27.04 -14.48ZM-17.1 -0.35L-17.1 -4.71C-21.54 -4.36 -24.92 -4.19 -27.22 -4.19C-27.57 -4.19 -27.86 -4.3 -28.09 -4.54C-28.32 -4.77 -28.44 -5.06 -28.44 -5.41L-28.44 -6.8L-16.4 -6.8L-16.4 -13.26C-16.4 -15.01 -16.9 -16.37 -17.88 -17.36C-18.87 -18.35 -20.24 -18.84 -21.98 -18.84L-28.96 -18.84C-30.71 -18.84 -32.07 -18.35 -33.06 -17.36C-34.05 -16.37 -34.55 -15.01 -34.55 -13.26L-34.55 -4.89C-34.55 -3.3 -34.07 -2.04 -33.12 -1.08C-32.16 -0.13 -30.89 0.35 -29.31 0.35C-25.66 0.35 -21.59 0.12 -17.1 -0.35Z M-0.35 0L-0.35 -4.54L-4.89 -4.54C-5.23 -4.54 -5.53 -4.65 -5.76 -4.89C-5.99 -5.12 -6.11 -5.41 -6.11 -5.76L-6.11 -13.78L-1.74 -13.78L-1.74 -18.49L-6.11 -18.49L-6.11 -22.68L-11.52 -22.68L-12.21 -18.49L-14.31 -18.49L-14.31 -13.78L-12.21 -13.78L-12.21 -4.89C-12.21 -3.3 -11.74 -2.04 -10.78 -1.08C-9.83 -0.13 -8.56 0.35 -6.98 0.35C-4.82 0.35 -2.61 0.23 -0.35 0Z M31.75 -0.35L31.75 -5.06C30.24 -4.97 28.98 -4.89 27.97 -4.82C26.96 -4.75 26.13 -4.7 25.49 -4.68C24.85 -4.65 24.22 -4.63 23.59 -4.61C22.96 -4.58 22.36 -4.57 21.77 -4.55C21.19 -4.54 20.66 -4.54 20.17 -4.54C19.68 -4.54 19.28 -4.69 18.97 -5.01C18.65 -5.32 18.49 -5.75 18.49 -6.28L18.49 -17.45C18.49 -18.84 19.19 -19.54 20.59 -19.54L31.75 -19.54L31.75 -24.43L19.19 -24.43C16.75 -24.43 14.98 -23.87 13.87 -22.77C12.77 -21.66 12.21 -19.89 12.21 -17.45L12.21 -6.28C12.21 -4 12.75 -2.33 13.82 -1.26C14.89 -0.19 16.56 0.35 18.84 0.35C22.26 0.35 26.57 0.12 31.75 -0.35Z M41.53 -4.54L40.65 -4.54C40.3 -4.54 40.01 -4.65 39.78 -4.89C39.55 -5.12 39.43 -5.41 39.43 -5.76L39.43 -6.11C39.43 -6.46 39.55 -6.75 39.78 -6.98C40.01 -7.21 40.3 -7.33 40.65 -7.33L45.71 -7.33L45.71 -5.23C44.15 -4.77 42.76 -4.54 41.53 -4.54ZM35.07 -18.15L35.07 -13.78C36.19 -13.85 37.66 -13.96 39.48 -14.1C41.31 -14.24 42.98 -14.31 44.49 -14.31C44.84 -14.31 45.13 -14.19 45.36 -13.96C45.6 -13.73 45.71 -13.43 45.71 -13.09L45.71 -11.69L38.56 -11.69C36.98 -11.69 35.71 -11.21 34.76 -10.26C33.8 -9.31 33.33 -8.04 33.33 -6.46L33.33 -4.89C33.33 -3.3 33.8 -2.04 34.76 -1.08C35.71 -0.13 36.98 0.35 38.56 0.35L39.78 0.35C40.57 0.35 41.54 0.18 42.69 -0.16C43.85 -0.49 44.97 -1.02 46.06 -1.74L46.41 0L51.82 0L51.82 -13.61C51.82 -15.19 51.34 -16.46 50.39 -17.41C49.44 -18.37 48.17 -18.84 46.59 -18.84C43.17 -18.84 39.33 -18.61 35.07 -18.15Z M64.38 0L64.38 -4.54L62.29 -4.54C61.94 -4.54 61.65 -4.65 61.42 -4.89C61.18 -5.12 61.07 -5.41 61.07 -5.76L61.07 -24.43L54.96 -24.43L54.96 -4.89C54.96 -3.3 55.44 -2.04 56.39 -1.08C57.34 -0.13 58.53 0.35 59.93 0.35C61.34 0.35 62.82 0.23 64.38 0Z M83.23 -0.35L83.23 -4.89C79.04 -4.54 75.9 -4.36 73.8 -4.36C73.45 -4.36 73.16 -4.48 72.93 -4.71C72.7 -4.94 72.58 -5.23 72.58 -5.58L72.58 -12.39C72.58 -13.32 73.05 -13.78 73.98 -13.78L83.23 -13.78L83.23 -18.49L72.06 -18.49C70.31 -18.49 68.95 -18 67.96 -17.01C66.97 -16.02 66.48 -14.66 66.48 -12.91L66.48 -4.89C66.48 -3.3 66.95 -2.04 67.91 -1.08C68.86 -0.13 70.13 0.35 71.71 0.35C75.04 0.35 78.88 0.12 83.23 -0.35Z M94.57 -4.71L93.35 -4.71C93 -4.71 92.71 -4.83 92.47 -5.06C92.24 -5.29 92.12 -5.58 92.12 -5.93L92.12 -18.49L86.02 -18.49L86.02 -4.89C86.02 -3.3 86.49 -2.04 87.45 -1.08C88.4 -0.13 89.67 0.35 91.25 0.35L92.82 0.35C93.61 0.35 94.58 0.18 95.74 -0.16C96.89 -0.49 98.01 -1.02 99.1 -1.74L99.45 0L104.86 0L104.86 -18.49L98.75 -18.49L98.75 -5.41C97.2 -4.94 95.8 -4.71 94.57 -4.71Z M117.77 0L117.77 -4.54L115.68 -4.54C115.33 -4.54 115.04 -4.65 114.81 -4.89C114.57 -5.12 114.46 -5.41 114.46 -5.76L114.46 -24.43L108.35 -24.43L108.35 -4.89C108.35 -3.3 108.83 -2.04 109.78 -1.08C110.73 -0.13 111.92 0.35 113.32 0.35C114.73 0.35 116.21 0.23 117.77 0Z M127.54 -4.54L126.67 -4.54C126.32 -4.54 126.03 -4.65 125.8 -4.89C125.57 -5.12 125.45 -5.41 125.45 -5.76L125.45 -6.11C125.45 -6.46 125.57 -6.75 125.8 -6.98C126.03 -7.21 126.32 -7.33 126.67 -7.33L131.73 -7.33L131.73 -5.23C130.17 -4.77 128.78 -4.54 127.54 -4.54ZM121.09 -18.15L121.09 -13.78C122.2 -13.85 123.67 -13.96 125.5 -14.1C127.33 -14.24 129 -14.31 130.51 -14.31C130.86 -14.31 131.15 -14.19 131.38 -13.96C131.61 -13.73 131.73 -13.43 131.73 -13.09L131.73 -11.69L124.58 -11.69C122.99 -11.69 121.73 -11.21 120.77 -10.26C119.82 -9.31 119.34 -8.04 119.34 -6.46L119.34 -4.89C119.34 -3.3 119.82 -2.04 120.77 -1.08C121.73 -0.13 122.99 0.35 124.58 0.35L125.8 0.35C126.59 0.35 127.56 0.18 128.71 -0.16C129.86 -0.49 130.99 -1.02 132.08 -1.74L132.43 0L137.84 0L137.84 -13.61C137.84 -15.19 137.36 -16.46 136.41 -17.41C135.45 -18.37 134.18 -18.84 132.6 -18.84C129.18 -18.84 125.34 -18.61 121.09 -18.15Z M153.89 0L153.89 -4.54L149.35 -4.54C149 -4.54 148.71 -4.65 148.48 -4.89C148.25 -5.12 148.13 -5.41 148.13 -5.76L148.13 -13.78L152.49 -13.78L152.49 -18.49L148.13 -18.49L148.13 -22.68L142.72 -22.68L142.02 -18.49L139.93 -18.49L139.93 -13.78L142.02 -13.78L142.02 -4.89C142.02 -3.3 142.5 -2.04 143.45 -1.08C144.41 -0.13 145.68 0.35 147.26 0.35C149.42 0.35 151.63 0.23 153.89 0Z M174.48 -5.23L174.48 -13.26C174.48 -15.01 173.98 -16.37 172.99 -17.36C172.01 -18.35 170.64 -18.84 168.89 -18.84L160.87 -18.84C159.12 -18.84 157.76 -18.35 156.77 -17.36C155.78 -16.37 155.28 -15.01 155.28 -13.26L155.28 -5.23C155.28 -3.49 155.78 -2.12 156.77 -1.13C157.76 -0.15 159.12 0.35 160.87 0.35L168.89 0.35C170.64 0.35 172.01 -0.15 172.99 -1.13C173.98 -2.12 174.48 -3.49 174.48 -5.23ZM168.37 -12.74L168.37 -5.76C168.37 -4.83 167.9 -4.36 166.97 -4.36L162.79 -4.36C161.86 -4.36 161.39 -4.83 161.39 -5.76L161.39 -12.74C161.39 -13.67 161.86 -14.13 162.79 -14.13L166.97 -14.13C167.9 -14.13 168.37 -13.67 168.37 -12.74Z M188.26 -13.43L191.23 -13.43L191.23 -18.84L189.66 -18.84C187.47 -18.84 185.38 -17.97 183.38 -16.23L183.03 -18.49L177.62 -18.49L177.62 0L183.72 0L183.72 -12.39C185.28 -13.09 186.79 -13.43 188.26 -13.43Z"></path></g><g id="SvgjsG158350" class="text" transform="translate(162.89471444035777, 53.222344459119135) scale(1)" light-content="false" fill="#ffd102"><path d="M-73.65 -5.85L-73.65 0L-70.95 0L-70.95 -10.5L-73.8 -10.5L-76.8 -4.95L-79.8 -10.5L-82.65 -10.5L-82.65 0L-79.95 0L-79.95 -5.85L-77.85 -2.1L-75.75 -2.1Z M-66.15 -1.95L-66.52 -1.95C-66.67 -1.95 -66.8 -2 -66.9 -2.1C-67 -2.2 -67.05 -2.32 -67.05 -2.47L-67.05 -2.62C-67.05 -2.77 -67 -2.9 -66.9 -3C-66.8 -3.1 -66.67 -3.15 -66.52 -3.15L-64.35 -3.15L-64.35 -2.25C-65.02 -2.05 -65.62 -1.95 -66.15 -1.95ZM-68.92 -7.8L-68.92 -5.92C-68.45 -5.95 -67.81 -6 -67.03 -6.06C-66.24 -6.12 -65.53 -6.15 -64.87 -6.15C-64.72 -6.15 -64.6 -6.1 -64.5 -6C-64.4 -5.9 -64.35 -5.77 -64.35 -5.62L-64.35 -5.02L-67.42 -5.02C-68.1 -5.02 -68.65 -4.82 -69.06 -4.41C-69.47 -4 -69.67 -3.45 -69.67 -2.77L-69.67 -2.1C-69.67 -1.42 -69.47 -0.88 -69.06 -0.46C-68.65 -0.06 -68.1 0.15 -67.42 0.15L-66.9 0.15C-66.56 0.15 -66.14 0.08 -65.65 -0.07C-65.15 -0.21 -64.67 -0.44 -64.2 -0.75L-64.05 0L-61.72 0L-61.72 -5.85C-61.72 -6.53 -61.93 -7.07 -62.34 -7.48C-62.75 -7.89 -63.29 -8.1 -63.97 -8.1C-65.44 -8.1 -67.09 -8 -68.92 -7.8Z M-57.75 -3.15L-56.62 -3.15L-54.9 0L-52.12 0L-54.37 -4.12L-52.12 -7.95L-54.9 -7.95L-56.55 -5.17L-57.75 -5.17L-57.75 -10.5L-60.37 -10.5L-60.37 0L-57.75 0Z M-48.45 -6.22L-47.1 -6.22C-46.7 -6.22 -46.5 -6.02 -46.5 -5.62L-46.5 -4.8L-49.05 -4.8L-49.05 -5.62C-49.05 -6.02 -48.85 -6.22 -48.45 -6.22ZM-44.17 -0.15L-44.17 -2.02C-46.09 -1.87 -47.53 -1.8 -48.52 -1.8C-48.67 -1.8 -48.8 -1.85 -48.9 -1.95C-49 -2.05 -49.05 -2.17 -49.05 -2.32L-49.05 -2.92L-43.87 -2.92L-43.87 -5.7C-43.87 -6.45 -44.09 -7.04 -44.51 -7.46C-44.94 -7.89 -45.52 -8.1 -46.27 -8.1L-49.27 -8.1C-50.02 -8.1 -50.61 -7.89 -51.04 -7.46C-51.46 -7.04 -51.67 -6.45 -51.67 -5.7L-51.67 -2.1C-51.67 -1.42 -51.47 -0.88 -51.06 -0.46C-50.65 -0.06 -50.1 0.15 -49.42 0.15C-47.86 0.15 -46.11 0.05 -44.17 -0.15Z M-39.08 -10.5L-35.1 -2.77L-35.1 0L-32.4 0L-32.4 -2.77L-28.42 -10.5L-31.27 -10.5L-33.75 -5.4L-36.22 -10.5Z M-20.62 -2.25L-20.62 -5.7C-20.62 -6.45 -20.84 -7.04 -21.26 -7.46C-21.69 -7.89 -22.27 -8.1 -23.02 -8.1L-26.47 -8.1C-27.22 -8.1 -27.81 -7.89 -28.24 -7.46C-28.66 -7.04 -28.87 -6.45 -28.87 -5.7L-28.87 -2.25C-28.87 -1.5 -28.66 -0.91 -28.24 -0.49C-27.81 -0.06 -27.22 0.15 -26.47 0.15L-23.02 0.15C-22.28 0.15 -21.69 -0.06 -21.26 -0.49C-20.84 -0.91 -20.62 -1.5 -20.62 -2.25ZM-23.25 -5.47L-23.25 -2.47C-23.25 -2.07 -23.45 -1.87 -23.85 -1.87L-25.65 -1.87C-26.05 -1.87 -26.25 -2.07 -26.25 -2.47L-26.25 -5.47C-26.25 -5.87 -26.05 -6.07 -25.65 -6.07L-23.85 -6.07C-23.45 -6.07 -23.25 -5.87 -23.25 -5.47Z M-15.6 -2.02L-16.12 -2.02C-16.27 -2.02 -16.4 -2.07 -16.5 -2.17C-16.6 -2.28 -16.65 -2.4 -16.65 -2.55L-16.65 -7.95L-19.27 -7.95L-19.27 -2.1C-19.27 -1.42 -19.07 -0.88 -18.66 -0.46C-18.25 -0.06 -17.7 0.15 -17.02 0.15L-16.35 0.15C-16.01 0.15 -15.59 0.08 -15.1 -0.07C-14.6 -0.21 -14.12 -0.44 -13.65 -0.75L-13.5 0L-11.17 0L-11.17 -7.95L-13.8 -7.95L-13.8 -2.32C-14.47 -2.13 -15.07 -2.02 -15.6 -2.02Z M-5.1 -5.77L-3.82 -5.77L-3.82 -8.1L-4.5 -8.1C-5.44 -8.1 -6.34 -7.72 -7.2 -6.97L-7.35 -7.95L-9.67 -7.95L-9.67 0L-7.05 0L-7.05 -5.32C-6.38 -5.62 -5.73 -5.77 -5.1 -5.77Z M4.57 -2.1L4.57 -10.5L1.87 -10.5L1.87 0L10.05 0L10.05 -2.1Z M14.25 -7.65L10.5 -7.65L10.5 -5.62L11.63 -5.62L11.63 0L14.25 0ZM11.63 -10.65L11.63 -8.55L14.25 -8.55L14.25 -10.65Z M22.2 -8.47L22.2 -10.5C21.77 -10.52 21.22 -10.55 20.54 -10.59C19.85 -10.63 19.21 -10.65 18.6 -10.65C17.92 -10.65 17.37 -10.44 16.97 -10.03C16.55 -9.63 16.35 -9.08 16.35 -8.4L16.35 -7.35L15.3 -7.35L15.3 -5.32L16.35 -5.32L16.35 0L18.98 0L18.98 -5.32L21.45 -5.32L21.45 -7.35L18.98 -7.35L18.98 -8.1C18.98 -8.25 19.03 -8.37 19.13 -8.47C19.22 -8.58 19.45 -8.62 19.8 -8.62C20.15 -8.62 20.57 -8.61 21.05 -8.56C21.53 -8.52 21.91 -8.49 22.2 -8.47Z M25.58 -6.22L26.93 -6.22C27.32 -6.22 27.53 -6.02 27.53 -5.62L27.53 -4.8L24.98 -4.8L24.98 -5.62C24.98 -6.02 25.17 -6.22 25.58 -6.22ZM29.85 -0.15L29.85 -2.02C27.94 -1.87 26.49 -1.8 25.5 -1.8C25.35 -1.8 25.23 -1.85 25.13 -1.95C25.02 -2.05 24.98 -2.17 24.98 -2.32L24.98 -2.92L30.15 -2.92L30.15 -5.7C30.15 -6.45 29.94 -7.04 29.51 -7.46C29.09 -7.89 28.5 -8.1 27.75 -8.1L24.75 -8.1C24 -8.1 23.41 -7.89 22.99 -7.46C22.56 -7.04 22.35 -6.45 22.35 -5.7L22.35 -2.1C22.35 -1.42 22.55 -0.88 22.97 -0.46C23.38 -0.06 23.92 0.15 24.6 0.15C26.17 0.15 27.92 0.05 29.85 -0.15Z M36.15 -10.5L36.15 0L42.6 0C43.58 0 44.3 -0.23 44.76 -0.69C45.22 -1.15 45.45 -1.87 45.45 -2.85C45.45 -3.26 45.4 -3.62 45.3 -3.93C45.01 -4.79 44.46 -5.33 43.65 -5.55C44.03 -5.7 44.35 -5.96 44.61 -6.34C44.87 -6.71 45 -7.2 45 -7.8C45 -8.71 44.77 -9.39 44.31 -9.83C43.85 -10.28 43.13 -10.5 42.15 -10.5ZM42.75 -3.3L42.75 -3C42.75 -2.4 42.45 -2.1 41.85 -2.1L38.85 -2.1L38.85 -4.2L41.85 -4.2C42.45 -4.2 42.75 -3.9 42.75 -3.3ZM42.3 -7.5L42.3 -7.2C42.3 -6.6 42 -6.3 41.4 -6.3L38.85 -6.3L38.85 -8.4L41.4 -8.4C42 -8.4 42.3 -8.1 42.3 -7.5Z M49.73 -6.22L51.08 -6.22C51.47 -6.22 51.68 -6.02 51.68 -5.62L51.68 -4.8L49.13 -4.8L49.13 -5.62C49.13 -6.02 49.32 -6.22 49.73 -6.22ZM54 -0.15L54 -2.02C52.09 -1.87 50.64 -1.8 49.65 -1.8C49.5 -1.8 49.38 -1.85 49.28 -1.95C49.17 -2.05 49.13 -2.17 49.13 -2.32L49.13 -2.92L54.3 -2.92L54.3 -5.7C54.3 -6.45 54.09 -7.04 53.66 -7.46C53.24 -7.89 52.65 -8.1 51.9 -8.1L48.9 -8.1C48.15 -8.1 47.56 -7.89 47.14 -7.46C46.71 -7.04 46.5 -6.45 46.5 -5.7L46.5 -2.1C46.5 -1.42 46.7 -0.88 47.12 -0.46C47.53 -0.06 48.07 0.15 48.75 0.15C50.32 0.15 52.07 0.05 54 -0.15Z M61.2 0L61.2 -1.95L59.25 -1.95C59.1 -1.95 58.97 -2 58.88 -2.1C58.78 -2.2 58.72 -2.32 58.72 -2.47L58.72 -5.92L60.6 -5.92L60.6 -7.95L58.72 -7.95L58.72 -9.75L56.4 -9.75L56.1 -7.95L55.2 -7.95L55.2 -5.92L56.1 -5.92L56.1 -2.1C56.1 -1.42 56.3 -0.88 56.72 -0.46C57.12 -0.06 57.67 0.15 58.35 0.15C59.28 0.15 60.23 0.1 61.2 0Z M67.5 0L67.5 -1.95L65.55 -1.95C65.4 -1.95 65.27 -2 65.18 -2.1C65.08 -2.2 65.02 -2.32 65.02 -2.47L65.02 -5.92L66.9 -5.92L66.9 -7.95L65.02 -7.95L65.02 -9.75L62.7 -9.75L62.4 -7.95L61.5 -7.95L61.5 -5.92L62.4 -5.92L62.4 -2.1C62.4 -1.42 62.6 -0.88 63.02 -0.46C63.42 -0.06 63.97 0.15 64.65 0.15C65.58 0.15 66.53 0.1 67.5 0Z M71.47 -6.22L72.82 -6.22C73.22 -6.22 73.43 -6.02 73.43 -5.62L73.43 -4.8L70.87 -4.8L70.87 -5.62C70.87 -6.02 71.07 -6.22 71.47 -6.22ZM75.75 -0.15L75.75 -2.02C73.84 -1.87 72.39 -1.8 71.4 -1.8C71.25 -1.8 71.13 -1.85 71.02 -1.95C70.92 -2.05 70.87 -2.17 70.87 -2.32L70.87 -2.92L76.05 -2.92L76.05 -5.7C76.05 -6.45 75.84 -7.04 75.41 -7.46C74.99 -7.89 74.4 -8.1 73.65 -8.1L70.65 -8.1C69.9 -8.1 69.31 -7.89 68.89 -7.46C68.46 -7.04 68.25 -6.45 68.25 -5.7L68.25 -2.1C68.25 -1.42 68.45 -0.88 68.86 -0.46C69.28 -0.06 69.82 0.15 70.5 0.15C72.07 0.15 73.82 0.05 75.75 -0.15Z M81.98 -5.77L83.25 -5.77L83.25 -8.1L82.57 -8.1C81.64 -8.1 80.74 -7.72 79.88 -6.97L79.72 -7.95L77.4 -7.95L77.4 0L80.02 0L80.02 -5.32C80.69 -5.62 81.35 -5.77 81.98 -5.77Z"></path></g></g></svg>