<svg xmlns="http://www.w3.org/2000/svg" xmlns:svgjs="http://svgjs.com/svgjs" version="1.1" xlink="http://www.w3.org/1999/xlink" width="100%" height="100%" preserveAspectRatio="xMidYMid meet" viewBox="1.0419067564271245e-7 7.342612775573798e-7 300.0030822753906 40.48467254638672" overflow="visible" style="     height: fit-content;     width: fit-content;     background: transparent; "><defs id="SvgjsDefs158346"/><g id="SvgjsG158347" transform="scale(0.6493506493506493)" opacity="1"><g id="SvgjsG158348" class="VCFueQ6ZW" transform="translate(-3.5325829119752106, -3.46676485224316) scale(0.6927991590459321)" light-content="false" non-strokable="false" fill="gold"><path fill="none" d="M76.254 80.263a3.976 3.976 0 0 0-1.175-.799 3.597 3.597 0 0 0-1.414-.28c-.499 0-.978.096-1.435.28a3.883 3.883 0 0 0-1.195.799 4.327 4.327 0 0 0-.82 1.175 3.405 3.405 0 0 0-.307 1.455c0 .472.103.936.307 1.394.212.458.485.854.82 1.195a3.92 3.92 0 0 0 1.195.819c.457.205.949.308 1.482.308.498 0 .97-.109 1.413-.335a3.774 3.774 0 0 0 1.148-.86c.32-.354.587-.751.799-1.195.205-.437.308-.881.308-1.325 0-.532-.103-1.018-.308-1.455a4.295 4.295 0 0 0-.818-1.176zm-10.643-56.94H81.69v5.963H65.611zM19.84 84.84l7.596-7.603 7.554 7.603 3.586-3.586-7.596-7.555 7.596-7.554-3.586-3.586-7.554 7.546-7.5-7.546-3.593 3.586 7.506 7.554-7.602 7.555zm4.145-47.371h4.735v-8.797h8.798v-4.734H28.72V15.14h-4.735v8.798h-8.797v4.734h8.797zm38.498 33.886h22.329v4.728H62.483zm8.552-4.179c.341.342.737.601 1.195.799a3.91 3.91 0 0 0 1.482.287c.498 0 .97-.109 1.413-.314a3.504 3.504 0 0 0 1.148-.84c.32-.355.587-.752.799-1.195.205-.438.308-.895.308-1.366 0-.533-.103-1.024-.308-1.482a4.225 4.225 0 0 0-.819-1.195 3.707 3.707 0 0 0-1.175-.792 3.502 3.502 0 0 0-1.414-.294c-1.004 0-1.879.362-2.63 1.086-.752.724-1.127 1.612-1.127 2.678 0 .499.103.977.307 1.435.213.455.486.851.821 1.193z"/><path d="M86.95 5.004H52.395v42.602h42.507V12.947a7.945 7.945 0 0 0-7.952-7.943zm-5.26 24.282H65.611v-5.963H81.69v5.963zM5.099 13.009v34.597h42.508V5.004H13.043c-4.385 0-7.944 3.613-7.944 8.005zm10.089 10.929h8.798V15.14h4.734v8.798h8.798v4.734H28.72v8.797h-4.734v-8.797h-8.798v-4.734zM5.099 87.053c0 4.392 3.56 7.943 7.951 7.943h34.557V52.395H5.099v34.658zm11.244-20.908l3.593-3.586 7.5 7.547 7.555-7.547 3.586 3.586-7.596 7.555 7.596 7.555-3.587 3.585-7.555-7.603-7.595 7.603-3.593-3.586 7.602-7.555-7.506-7.554zm36.052 28.851h34.562a7.942 7.942 0 0 0 7.944-7.943V52.395H52.395v42.601zm24.678-10.778a4.953 4.953 0 0 1-.799 1.195 3.758 3.758 0 0 1-1.148.86 3.066 3.066 0 0 1-1.413.335 3.573 3.573 0 0 1-1.482-.308 3.938 3.938 0 0 1-1.195-.819 4.222 4.222 0 0 1-.82-1.195 3.395 3.395 0 0 1-.307-1.394c0-.532.103-1.018.307-1.455.212-.443.485-.833.82-1.175a3.883 3.883 0 0 1 1.195-.799c.457-.185.936-.28 1.435-.28.505 0 .977.096 1.414.28.443.198.833.464 1.175.799.334.342.607.731.819 1.175.205.438.308.923.308 1.455a3.118 3.118 0 0 1-.309 1.326zm-6.038-22.35c.751-.724 1.626-1.086 2.63-1.086.505 0 .977.103 1.414.294.443.191.833.45 1.175.792.334.342.607.737.819 1.195.205.458.308.949.308 1.482 0 .472-.103.929-.308 1.366-.212.443-.479.84-.799 1.195a3.519 3.519 0 0 1-1.148.84 3.333 3.333 0 0 1-1.413.314 3.928 3.928 0 0 1-1.482-.287 3.763 3.763 0 0 1-1.195-.799 4.236 4.236 0 0 1-.82-1.195 3.489 3.489 0 0 1-.307-1.435c-.001-1.064.374-1.952 1.126-2.676zm-8.552 9.487h22.329v4.728H62.483v-4.728z"/></g></g></svg>