<?xml version="1.0" encoding="utf-8"?>
<svg viewBox="55.3 62.5 152.51 152.87" xmlns="http://www.w3.org/2000/svg">
  <path d="M 55.3 76.099 L 55.3 134.872 L 127.512 134.872 L 127.512 62.5 L 68.795 62.5 C 61.346 62.5 55.3 68.638 55.3 76.099 Z M 72.439 94.665 L 87.385 94.665 L 87.385 79.719 L 95.427 79.719 L 95.427 94.665 L 110.373 94.665 L 110.373 102.707 L 95.427 102.707 L 95.427 117.651 L 87.385 117.651 L 87.385 102.707 L 72.439 102.707 L 72.439 94.665 Z" fill="gold" opacity="1" style="transform-origin: 91.406px 98.686px;">
    <animateTransform type="scale" additive="sum" attributeName="transform" values="1 1;0.7 0.7;1 1;1 1" dur="1.5s" keyTimes="0; 0.16667; 0.5; 1" repeatCount="indefinite" calcMode="spline" keySplines="0.42 0 1 1; 0 0 0.58 1; 0 0 1 1" fill="freeze"/>
  </path>
  <path d="M 194.301 62.5 L 135.6 62.5 L 135.6 134.871 L 207.81 134.871 L 207.81 75.993 C 207.808 68.536 201.758 62.493 194.301 62.5 Z M 185.365 103.75 L 158.051 103.75 L 158.051 93.62 L 185.365 93.62 L 185.365 103.75 Z" fill="gold" opacity="1" style="transform-origin: 171.705px 98.6855px;">
    <animateTransform type="scale" additive="sum" attributeName="transform" values="1 1;1 1;0.7 0.7;1 1;1 1" dur="1.5s" keyTimes="0; 0.16667; 0.33333; 0.66667; 1" repeatCount="indefinite" calcMode="spline" keySplines="0 0 1 1; 0.42 0 1 1; 0 0 0.58 1; 0 0 1 1" fill="freeze"/>
  </path>
  <path d="M 55.3 201.876 C 55.3 209.337 61.348 215.37 68.807 215.37 L 127.512 215.37 L 127.512 143 L 55.3 143 L 55.3 201.876 Z M 74.401 166.358 L 80.505 160.266 L 93.246 173.087 L 106.08 160.266 L 112.172 166.358 L 99.268 179.192 L 112.172 192.027 L 106.078 198.117 L 93.244 185.201 L 80.342 198.117 L 74.238 192.025 L 87.152 179.191 L 74.401 166.358 Z" fill="gold" opacity="1" style="transform-origin: 91.406px 179.185px;">
    <animateTransform type="scale" additive="sum" attributeName="transform" values="1 1;1 1;0.7 0.7;1 1;1 1" dur="1.5s" keyTimes="0; 0.5; 0.66667; 1; 1" repeatCount="indefinite" calcMode="spline" keySplines="0 0 1 1; 0.42 0 1 1; 0 0 0.58 1; 0 0 1 1" fill="freeze"/>
  </path>
  <path d="M 135.6 215.37 L 194.313 215.37 C 201.766 215.371 207.809 209.329 207.808 201.876 L 207.808 143 L 135.6 143 L 135.6 215.37 Z M 177.522 197.06 C 177.171 197.799 176.713 198.483 176.165 199.09 C 175.614 199.698 174.952 200.194 174.214 200.551 C 173.471 200.93 172.648 201.125 171.814 201.12 C 170.947 201.128 170.089 200.949 169.297 200.597 C 168.54 200.263 167.851 199.791 167.266 199.206 C 166.689 198.614 166.217 197.928 165.873 197.176 C 165.534 196.432 165.356 195.625 165.352 194.808 C 165.352 193.904 165.527 193.078 165.873 192.336 C 166.234 191.583 166.697 190.921 167.266 190.34 C 167.853 189.765 168.541 189.305 169.297 188.982 C 170.073 188.668 170.887 188.507 171.734 188.507 C 172.592 188.507 173.394 188.67 174.136 188.982 C 174.889 189.319 175.551 189.771 176.132 190.34 C 176.7 190.921 177.164 191.582 177.524 192.336 C 177.872 193.08 178.047 193.904 178.047 194.808 C 178.04 195.588 177.861 196.357 177.522 197.06 Z M 167.265 159.093 C 168.541 157.863 170.027 157.248 171.733 157.248 C 172.59 157.248 173.392 157.423 174.135 157.747 C 174.887 158.072 175.55 158.512 176.131 159.093 C 176.698 159.674 177.162 160.345 177.522 161.123 C 177.87 161.901 178.045 162.735 178.045 163.64 C 178.045 164.442 177.87 165.218 177.522 165.961 C 177.162 166.713 176.708 167.388 176.165 167.991 C 175.619 168.594 174.955 169.08 174.214 169.418 C 173.463 169.769 172.644 169.951 171.814 169.951 C 170.951 169.953 170.096 169.787 169.297 169.464 C 168.539 169.146 167.85 168.685 167.266 168.106 C 166.689 167.515 166.218 166.828 165.873 166.076 C 165.529 165.31 165.351 164.479 165.352 163.638 C 165.35 161.831 165.987 160.322 167.265 159.093 Z M 152.737 175.209 L 190.669 175.209 L 190.669 183.241 L 152.737 183.241 L 152.737 175.209 Z" fill="gold" opacity="1" style="transform-origin: 171.704px 179.185px;">
    <animateTransform type="scale" additive="sum" attributeName="transform" values="1 1;1 1;0.7 0.7;1 1;1 1" dur="1.5s" keyTimes="0; 0.33333; 0.5; 0.83333; 1" repeatCount="indefinite" calcMode="spline" keySplines="0 0 1 1; 0.42 0 1 1; 0 0 0.58 1; 0 0 1 1" fill="freeze"/>
  </path>
  </svg>